<svg width="180" height="60" viewBox="0 0 180 60" fill="none" xmlns="http://www.w3.org/2000/svg">
<g filter="url(#filter0_d_957_8530)">
<rect x="5" y="3" width="170" height="50" rx="5" fill="url(#paint0_linear_957_8530)"/>
<rect x="5.5" y="3.5" width="169" height="49" rx="4.5" stroke="url(#paint1_linear_957_8530)"/>
</g>
<path d="M63.2373 26V16.1357H65.0078L68.1455 23.9971H68.2617L71.3994 16.1357H73.1699V26H71.7686V18.7676H71.0098L72.6094 16.4092L68.7676 26H67.6328L63.7979 16.4092L65.3906 18.7676H64.6387V26H63.2373ZM77.5039 26.123C77.0345 26.123 76.613 26.0342 76.2393 25.8564C75.8701 25.6742 75.5785 25.4167 75.3643 25.084C75.1501 24.7513 75.043 24.3617 75.043 23.915V23.9014C75.043 23.4548 75.1501 23.0742 75.3643 22.7598C75.583 22.4453 75.8975 22.1992 76.3076 22.0215C76.7223 21.8392 77.2236 21.7298 77.8115 21.6934L80.5527 21.5293V22.5752L78.0166 22.7393C77.5062 22.7712 77.1302 22.8805 76.8887 23.0674C76.6471 23.2497 76.5264 23.5072 76.5264 23.8398V23.8535C76.5264 24.1908 76.6562 24.4574 76.916 24.6533C77.1758 24.8447 77.5039 24.9404 77.9004 24.9404C78.2695 24.9404 78.5977 24.8675 78.8848 24.7217C79.1764 24.5713 79.4043 24.3708 79.5684 24.1201C79.7324 23.8649 79.8145 23.5778 79.8145 23.2588V20.9209C79.8145 20.5107 79.6868 20.1986 79.4316 19.9844C79.181 19.7656 78.8073 19.6562 78.3105 19.6562C77.8958 19.6562 77.5563 19.7292 77.292 19.875C77.0322 20.0208 76.859 20.2259 76.7725 20.4902L76.7588 20.5107H75.3301L75.3369 20.4629C75.3962 20.0527 75.5579 19.6973 75.8223 19.3965C76.0911 19.0911 76.4421 18.8542 76.875 18.6855C77.3125 18.5169 77.8115 18.4326 78.3721 18.4326C78.9964 18.4326 79.5251 18.5329 79.958 18.7334C80.3955 18.9294 80.7259 19.2142 80.9492 19.5879C81.1771 19.957 81.291 20.4014 81.291 20.9209V26H79.8145V24.9473H79.7051C79.5592 25.1979 79.377 25.4121 79.1582 25.5898C78.9395 25.763 78.6911 25.8952 78.4131 25.9863C78.1351 26.0775 77.832 26.123 77.5039 26.123ZM83.3828 26V18.5762H84.8662V19.6973H84.9824C85.1647 19.3008 85.4336 18.9909 85.7891 18.7676C86.1445 18.5443 86.5934 18.4326 87.1357 18.4326C87.9697 18.4326 88.6077 18.6719 89.0498 19.1504C89.4919 19.6289 89.7129 20.3102 89.7129 21.1943V26H88.2227V21.543C88.2227 20.9232 88.0928 20.4629 87.833 20.1621C87.5778 19.8568 87.1768 19.7041 86.6299 19.7041C86.2699 19.7041 85.9577 19.7839 85.6934 19.9434C85.429 20.0983 85.224 20.3216 85.0781 20.6133C84.9368 20.9004 84.8662 21.2445 84.8662 21.6455V26H83.3828ZM93.8145 26.123C93.3451 26.123 92.9235 26.0342 92.5498 25.8564C92.1807 25.6742 91.889 25.4167 91.6748 25.084C91.4606 24.7513 91.3535 24.3617 91.3535 23.915V23.9014C91.3535 23.4548 91.4606 23.0742 91.6748 22.7598C91.8936 22.4453 92.208 22.1992 92.6182 22.0215C93.0329 21.8392 93.5342 21.7298 94.1221 21.6934L96.8633 21.5293V22.5752L94.3271 22.7393C93.8167 22.7712 93.4408 22.8805 93.1992 23.0674C92.9577 23.2497 92.8369 23.5072 92.8369 23.8398V23.8535C92.8369 24.1908 92.9668 24.4574 93.2266 24.6533C93.4863 24.8447 93.8145 24.9404 94.2109 24.9404C94.5801 24.9404 94.9082 24.8675 95.1953 24.7217C95.487 24.5713 95.7148 24.3708 95.8789 24.1201C96.043 23.8649 96.125 23.5778 96.125 23.2588V20.9209C96.125 20.5107 95.9974 20.1986 95.7422 19.9844C95.4915 19.7656 95.1178 19.6562 94.6211 19.6562C94.2064 19.6562 93.8669 19.7292 93.6025 19.875C93.3428 20.0208 93.1696 20.2259 93.083 20.4902L93.0693 20.5107H91.6406L91.6475 20.4629C91.7067 20.0527 91.8685 19.6973 92.1328 19.3965C92.4017 19.0911 92.7526 18.8542 93.1855 18.6855C93.623 18.5169 94.1221 18.4326 94.6826 18.4326C95.307 18.4326 95.8356 18.5329 96.2686 18.7334C96.7061 18.9294 97.0365 19.2142 97.2598 19.5879C97.4876 19.957 97.6016 20.4014 97.6016 20.9209V26H96.125V24.9473H96.0156C95.8698 25.1979 95.6875 25.4121 95.4688 25.5898C95.25 25.763 95.0016 25.8952 94.7236 25.9863C94.4456 26.0775 94.1426 26.123 93.8145 26.123ZM102.831 28.6182C102.202 28.6182 101.655 28.5316 101.19 28.3584C100.73 28.1852 100.366 27.9437 100.097 27.6338C99.8278 27.3239 99.6637 26.9639 99.6045 26.5537L99.6113 26.54H101.115L101.122 26.5537C101.186 26.8089 101.366 27.0186 101.662 27.1826C101.958 27.3467 102.355 27.4287 102.852 27.4287C103.462 27.4287 103.938 27.2897 104.28 27.0117C104.627 26.7337 104.8 26.3441 104.8 25.8428V24.3867H104.684C104.538 24.651 104.351 24.8789 104.123 25.0703C103.895 25.2572 103.635 25.3984 103.344 25.4941C103.052 25.5898 102.735 25.6377 102.394 25.6377C101.765 25.6377 101.218 25.4873 100.753 25.1865C100.293 24.8812 99.9372 24.4619 99.6865 23.9287C99.4404 23.391 99.3174 22.7734 99.3174 22.0762V22.0625C99.3174 21.3561 99.4427 20.7318 99.6934 20.1895C99.944 19.6426 100.302 19.2165 100.767 18.9111C101.231 18.6012 101.785 18.4463 102.428 18.4463C102.774 18.4463 103.091 18.501 103.378 18.6104C103.67 18.7197 103.927 18.8747 104.15 19.0752C104.374 19.2757 104.558 19.515 104.704 19.793H104.793V18.5762H106.276V25.8496C106.276 26.4102 106.135 26.8978 105.853 27.3125C105.575 27.7272 105.178 28.0485 104.663 28.2764C104.148 28.5042 103.537 28.6182 102.831 28.6182ZM102.811 24.4072C103.23 24.4072 103.59 24.3092 103.891 24.1133C104.191 23.9128 104.422 23.637 104.581 23.2861C104.745 22.9352 104.827 22.5296 104.827 22.0693V22.0557C104.827 21.5999 104.745 21.1943 104.581 20.8389C104.422 20.4834 104.191 20.2054 103.891 20.0049C103.59 19.8044 103.23 19.7041 102.811 19.7041C102.391 19.7041 102.034 19.8044 101.737 20.0049C101.446 20.2054 101.222 20.4834 101.067 20.8389C100.912 21.1898 100.835 21.5954 100.835 22.0557V22.0693C100.835 22.5296 100.912 22.9352 101.067 23.2861C101.222 23.637 101.446 23.9128 101.737 24.1133C102.034 24.3092 102.391 24.4072 102.811 24.4072ZM111.533 26.1436C110.809 26.1436 110.187 25.9886 109.667 25.6787C109.147 25.3643 108.746 24.9199 108.464 24.3457C108.186 23.7715 108.047 23.0924 108.047 22.3086V22.3018C108.047 21.527 108.186 20.8503 108.464 20.2715C108.746 19.6927 109.143 19.2415 109.653 18.918C110.168 18.5944 110.77 18.4326 111.458 18.4326C112.151 18.4326 112.745 18.5876 113.242 18.8975C113.743 19.2074 114.129 19.6426 114.397 20.2031C114.666 20.7591 114.801 21.4108 114.801 22.1582V22.6777H108.799V21.6182H114.062L113.352 22.6025V22.0078C113.352 21.4792 113.27 21.0417 113.105 20.6953C112.946 20.3444 112.725 20.0824 112.442 19.9092C112.16 19.736 111.834 19.6494 111.465 19.6494C111.096 19.6494 110.765 19.7406 110.474 19.9229C110.187 20.1006 109.959 20.3649 109.79 20.7158C109.626 21.0667 109.544 21.4974 109.544 22.0078V22.6025C109.544 23.0902 109.626 23.5072 109.79 23.8535C109.954 24.1999 110.187 24.4642 110.487 24.6465C110.793 24.8288 111.153 24.9199 111.567 24.9199C111.886 24.9199 112.16 24.8766 112.388 24.79C112.62 24.6989 112.809 24.5872 112.955 24.4551C113.105 24.3229 113.208 24.193 113.263 24.0654L113.29 24.0107H114.726L114.712 24.0723C114.648 24.3184 114.536 24.5645 114.377 24.8105C114.217 25.0521 114.006 25.2731 113.741 25.4736C113.481 25.6742 113.167 25.8359 112.798 25.959C112.433 26.082 112.012 26.1436 111.533 26.1436ZM123.886 26.2393C123.143 26.2393 122.496 26.123 121.944 25.8906C121.393 25.6536 120.958 25.3255 120.639 24.9062C120.32 24.487 120.137 24.0016 120.092 23.4502L120.085 23.3613H121.596L121.603 23.4365C121.634 23.7327 121.751 23.9902 121.951 24.209C122.156 24.4277 122.43 24.5986 122.771 24.7217C123.118 24.8447 123.512 24.9062 123.954 24.9062C124.369 24.9062 124.738 24.8402 125.062 24.708C125.385 24.5758 125.638 24.3936 125.82 24.1611C126.007 23.9287 126.101 23.6621 126.101 23.3613V23.3545C126.101 22.9762 125.957 22.6618 125.67 22.4111C125.383 22.1605 124.913 21.9645 124.262 21.8232L123.182 21.5977C122.184 21.3835 121.457 21.0439 121.001 20.5791C120.545 20.1097 120.317 19.5104 120.317 18.7812V18.7744C120.322 18.2048 120.475 17.7035 120.775 17.2705C121.081 16.8376 121.502 16.5003 122.04 16.2588C122.578 16.0173 123.195 15.8965 123.893 15.8965C124.59 15.8965 125.198 16.0173 125.718 16.2588C126.242 16.4958 126.654 16.8193 126.955 17.2295C127.26 17.6396 127.431 18.1022 127.468 18.6172L127.475 18.7061H125.978L125.964 18.6172C125.923 18.3483 125.811 18.109 125.629 17.8994C125.451 17.6898 125.212 17.5257 124.911 17.4072C124.615 17.2842 124.269 17.2249 123.872 17.2295C123.489 17.2295 123.147 17.2887 122.847 17.4072C122.546 17.5212 122.307 17.6875 122.129 17.9062C121.956 18.125 121.869 18.3893 121.869 18.6992V18.7061C121.869 19.0706 122.008 19.376 122.286 19.6221C122.569 19.8636 123.027 20.0527 123.66 20.1895L124.74 20.4287C125.428 20.5745 125.987 20.7682 126.415 21.0098C126.843 21.2513 127.156 21.5498 127.352 21.9053C127.552 22.2562 127.652 22.6755 127.652 23.1631V23.1699C127.652 23.7988 127.497 24.3434 127.188 24.8037C126.882 25.2594 126.447 25.6126 125.882 25.8633C125.317 26.1139 124.651 26.2393 123.886 26.2393ZM131.494 26.123C131.025 26.123 130.603 26.0342 130.229 25.8564C129.86 25.6742 129.569 25.4167 129.354 25.084C129.14 24.7513 129.033 24.3617 129.033 23.915V23.9014C129.033 23.4548 129.14 23.0742 129.354 22.7598C129.573 22.4453 129.888 22.1992 130.298 22.0215C130.713 21.8392 131.214 21.7298 131.802 21.6934L134.543 21.5293V22.5752L132.007 22.7393C131.496 22.7712 131.12 22.8805 130.879 23.0674C130.637 23.2497 130.517 23.5072 130.517 23.8398V23.8535C130.517 24.1908 130.646 24.4574 130.906 24.6533C131.166 24.8447 131.494 24.9404 131.891 24.9404C132.26 24.9404 132.588 24.8675 132.875 24.7217C133.167 24.5713 133.395 24.3708 133.559 24.1201C133.723 23.8649 133.805 23.5778 133.805 23.2588V20.9209C133.805 20.5107 133.677 20.1986 133.422 19.9844C133.171 19.7656 132.798 19.6562 132.301 19.6562C131.886 19.6562 131.547 19.7292 131.282 19.875C131.022 20.0208 130.849 20.2259 130.763 20.4902L130.749 20.5107H129.32L129.327 20.4629C129.386 20.0527 129.548 19.6973 129.812 19.3965C130.081 19.0911 130.432 18.8542 130.865 18.6855C131.303 18.5169 131.802 18.4326 132.362 18.4326C132.987 18.4326 133.515 18.5329 133.948 18.7334C134.386 18.9294 134.716 19.2142 134.939 19.5879C135.167 19.957 135.281 20.4014 135.281 20.9209V26H133.805V24.9473H133.695C133.549 25.1979 133.367 25.4121 133.148 25.5898C132.93 25.763 132.681 25.8952 132.403 25.9863C132.125 26.0775 131.822 26.123 131.494 26.123ZM137.441 26V15.6641H138.925V26H137.441ZM144.25 26.1436C143.525 26.1436 142.903 25.9886 142.384 25.6787C141.864 25.3643 141.463 24.9199 141.181 24.3457C140.903 23.7715 140.764 23.0924 140.764 22.3086V22.3018C140.764 21.527 140.903 20.8503 141.181 20.2715C141.463 19.6927 141.86 19.2415 142.37 18.918C142.885 18.5944 143.487 18.4326 144.175 18.4326C144.868 18.4326 145.462 18.5876 145.959 18.8975C146.46 19.2074 146.845 19.6426 147.114 20.2031C147.383 20.7591 147.518 21.4108 147.518 22.1582V22.6777H141.516V21.6182H146.779L146.068 22.6025V22.0078C146.068 21.4792 145.986 21.0417 145.822 20.6953C145.663 20.3444 145.442 20.0824 145.159 19.9092C144.877 19.736 144.551 19.6494 144.182 19.6494C143.812 19.6494 143.482 19.7406 143.19 19.9229C142.903 20.1006 142.675 20.3649 142.507 20.7158C142.343 21.0667 142.261 21.4974 142.261 22.0078V22.6025C142.261 23.0902 142.343 23.5072 142.507 23.8535C142.671 24.1999 142.903 24.4642 143.204 24.6465C143.509 24.8288 143.869 24.9199 144.284 24.9199C144.603 24.9199 144.877 24.8766 145.104 24.79C145.337 24.6989 145.526 24.5872 145.672 24.4551C145.822 24.3229 145.925 24.193 145.979 24.0654L146.007 24.0107H147.442L147.429 24.0723C147.365 24.3184 147.253 24.5645 147.094 24.8105C146.934 25.0521 146.722 25.2731 146.458 25.4736C146.198 25.6742 145.884 25.8359 145.515 25.959C145.15 26.082 144.729 26.1436 144.25 26.1436ZM151.981 26.1436C151.384 26.1436 150.865 26.057 150.423 25.8838C149.981 25.7061 149.63 25.4622 149.37 25.1523C149.11 24.8379 148.958 24.4733 148.912 24.0586V24.0449H150.402V24.0586C150.498 24.3366 150.68 24.5622 150.949 24.7354C151.218 24.9085 151.574 24.9951 152.016 24.9951C152.321 24.9951 152.588 24.9518 152.815 24.8652C153.048 24.7786 153.23 24.6579 153.362 24.5029C153.494 24.348 153.561 24.1702 153.561 23.9697V23.9561C153.561 23.7236 153.467 23.5277 153.28 23.3682C153.093 23.2087 152.786 23.0788 152.357 22.9785L151.168 22.7051C150.703 22.6003 150.318 22.4567 150.013 22.2744C149.707 22.0921 149.482 21.8688 149.336 21.6045C149.19 21.3356 149.117 21.0212 149.117 20.6611V20.6543C149.117 20.2214 149.24 19.8385 149.486 19.5059C149.732 19.1686 150.072 18.9066 150.505 18.7197C150.942 18.5283 151.441 18.4326 152.002 18.4326C152.567 18.4326 153.059 18.5215 153.479 18.6992C153.902 18.8724 154.237 19.1139 154.483 19.4238C154.729 19.7292 154.875 20.0846 154.921 20.4902V20.4971H153.499V20.4834C153.431 20.2236 153.267 20.0072 153.007 19.834C152.752 19.6608 152.414 19.5742 151.995 19.5742C151.726 19.5742 151.487 19.6175 151.277 19.7041C151.068 19.7861 150.901 19.9023 150.778 20.0527C150.66 20.1986 150.601 20.3717 150.601 20.5723V20.5859C150.601 20.7409 150.639 20.8776 150.717 20.9961C150.799 21.11 150.926 21.2126 151.1 21.3037C151.273 21.3903 151.496 21.4678 151.77 21.5361L152.952 21.8027C153.663 21.9714 154.192 22.2152 154.538 22.5342C154.889 22.8532 155.064 23.2816 155.064 23.8193V23.833C155.064 24.2887 154.93 24.6921 154.661 25.043C154.392 25.3893 154.025 25.6605 153.561 25.8564C153.1 26.0479 152.574 26.1436 151.981 26.1436Z" fill="#1A1D1F"/>
<path d="M62.3418 39L64.8857 31.9541H65.7695V33.1895H65.4375L63.4941 39H62.3418ZM63.5674 37.0957L63.875 36.2168H67.083L67.3906 37.0957H63.5674ZM67.459 39L65.5205 33.1895V31.9541H66.0723L68.6113 39H67.459ZM69.7148 40.7676V33.6973H70.7744V34.5322H70.8574C70.9583 34.3369 71.0885 34.1709 71.248 34.0342C71.4108 33.8975 71.5964 33.7917 71.8047 33.7168C72.013 33.6419 72.2409 33.6045 72.4883 33.6045C72.9342 33.6045 73.3216 33.7184 73.6504 33.9463C73.9792 34.1709 74.2331 34.4883 74.4121 34.8984C74.5944 35.3053 74.6855 35.7871 74.6855 36.3438V36.3535C74.6855 36.9134 74.596 37.3984 74.417 37.8086C74.238 38.2155 73.984 38.5312 73.6553 38.7559C73.3265 38.9772 72.9375 39.0879 72.4883 39.0879C72.2441 39.0879 72.0163 39.0505 71.8047 38.9756C71.5931 38.8975 71.4059 38.79 71.2432 38.6533C71.0804 38.5166 70.9518 38.3522 70.8574 38.1602H70.7744V40.7676H69.7148ZM72.1855 38.1797C72.4818 38.1797 72.7357 38.1064 72.9473 37.96C73.1589 37.8135 73.32 37.6035 73.4307 37.3301C73.5446 37.0566 73.6016 36.7311 73.6016 36.3535V36.3438C73.6016 35.9629 73.5446 35.6357 73.4307 35.3623C73.32 35.0889 73.1589 34.8789 72.9473 34.7324C72.7357 34.5859 72.4818 34.5127 72.1855 34.5127C71.8926 34.5127 71.6387 34.5876 71.4238 34.7373C71.209 34.8838 71.0446 35.0938 70.9307 35.3672C70.8167 35.6374 70.7598 35.9629 70.7598 36.3438V36.3535C70.7598 36.7279 70.8167 37.0518 70.9307 37.3252C71.0446 37.5986 71.209 37.8102 71.4238 37.96C71.6387 38.1064 71.8926 38.1797 72.1855 38.1797ZM75.9551 40.7676V33.6973H77.0146V34.5322H77.0977C77.1986 34.3369 77.3288 34.1709 77.4883 34.0342C77.651 33.8975 77.8366 33.7917 78.0449 33.7168C78.2533 33.6419 78.4811 33.6045 78.7285 33.6045C79.1745 33.6045 79.5618 33.7184 79.8906 33.9463C80.2194 34.1709 80.4733 34.4883 80.6523 34.8984C80.8346 35.3053 80.9258 35.7871 80.9258 36.3438V36.3535C80.9258 36.9134 80.8363 37.3984 80.6572 37.8086C80.4782 38.2155 80.2243 38.5312 79.8955 38.7559C79.5667 38.9772 79.1777 39.0879 78.7285 39.0879C78.4844 39.0879 78.2565 39.0505 78.0449 38.9756C77.8333 38.8975 77.6462 38.79 77.4834 38.6533C77.3206 38.5166 77.1921 38.3522 77.0977 38.1602H77.0146V40.7676H75.9551ZM78.4258 38.1797C78.722 38.1797 78.9759 38.1064 79.1875 37.96C79.3991 37.8135 79.5602 37.6035 79.6709 37.3301C79.7848 37.0566 79.8418 36.7311 79.8418 36.3535V36.3438C79.8418 35.9629 79.7848 35.6357 79.6709 35.3623C79.5602 35.0889 79.3991 34.8789 79.1875 34.7324C78.9759 34.5859 78.722 34.5127 78.4258 34.5127C78.1328 34.5127 77.8789 34.5876 77.6641 34.7373C77.4492 34.8838 77.2848 35.0938 77.1709 35.3672C77.057 35.6374 77 35.9629 77 36.3438V36.3535C77 36.7279 77.057 37.0518 77.1709 37.3252C77.2848 37.5986 77.4492 37.8102 77.6641 37.96C77.8789 38.1064 78.1328 38.1797 78.4258 38.1797ZM89.9785 39L86.4629 35.1523C86.2155 34.8854 86.0202 34.6527 85.877 34.4541C85.7337 34.2555 85.6312 34.0749 85.5693 33.9121C85.5075 33.7461 85.4766 33.5801 85.4766 33.4141V33.4043C85.4766 33.0951 85.5579 32.82 85.7207 32.5791C85.8835 32.3382 86.1064 32.1494 86.3896 32.0127C86.6729 31.876 86.9935 31.8076 87.3516 31.8076C87.7129 31.8076 88.0335 31.876 88.3135 32.0127C88.5934 32.1494 88.8132 32.3382 88.9727 32.5791C89.1322 32.8167 89.2119 33.0902 89.2119 33.3994V33.4092C89.2119 33.6468 89.1582 33.8714 89.0508 34.083C88.9466 34.2946 88.7757 34.4997 88.5381 34.6982C88.3005 34.8968 87.9847 35.0986 87.5908 35.3037L87.0488 34.7422C87.3548 34.5859 87.5941 34.4411 87.7666 34.3076C87.9424 34.1709 88.0677 34.0358 88.1426 33.9023C88.2174 33.7656 88.2549 33.6175 88.2549 33.458V33.4482C88.2549 33.279 88.2158 33.1309 88.1377 33.0039C88.0628 32.877 87.9587 32.7777 87.8252 32.7061C87.6917 32.6344 87.5355 32.5986 87.3564 32.5986C87.1839 32.5986 87.0293 32.6344 86.8926 32.7061C86.7591 32.7777 86.6533 32.8786 86.5752 33.0088C86.4971 33.1357 86.458 33.2839 86.458 33.4531V33.4629C86.458 33.5801 86.484 33.6973 86.5361 33.8145C86.5882 33.9316 86.6729 34.0651 86.79 34.2148C86.9072 34.3613 87.0684 34.5452 87.2734 34.7666L91.2578 38.9951V39H89.9785ZM87.1172 39.1318C86.6387 39.1318 86.2171 39.0488 85.8525 38.8828C85.4912 38.7135 85.2096 38.4792 85.0078 38.1797C84.806 37.877 84.7051 37.5303 84.7051 37.1396V37.1299C84.7051 36.71 84.8174 36.3405 85.042 36.0215C85.2699 35.7025 85.6182 35.4242 86.0869 35.1865L86.4922 34.9814L87.0488 35.5918L86.6924 35.7676C86.3864 35.9173 86.152 36.1012 85.9893 36.3193C85.8298 36.5374 85.75 36.7799 85.75 37.0469V37.0566C85.75 37.2975 85.8118 37.5107 85.9355 37.6963C86.0592 37.8818 86.2318 38.0267 86.4531 38.1309C86.6745 38.2318 86.93 38.2822 87.2197 38.2822C87.4997 38.2822 87.7536 38.2448 87.9814 38.1699C88.2093 38.0951 88.4128 37.9876 88.5918 37.8477C88.7708 37.7077 88.9271 37.5449 89.0605 37.3594C89.2526 37.0827 89.3958 36.7637 89.4902 36.4023C89.5846 36.041 89.6318 35.652 89.6318 35.2354V35.0742H90.5938V35.2744C90.5938 35.8343 90.5205 36.3503 90.374 36.8223C90.2275 37.2943 90.0046 37.7061 89.7051 38.0576C89.4154 38.3929 89.0557 38.6566 88.626 38.8486C88.1963 39.0374 87.6934 39.1318 87.1172 39.1318ZM96.79 39V32.9014H94.5732V31.9541H100.101V32.9014H97.8838V39H96.79ZM102.586 39.1025C102.068 39.1025 101.624 38.9919 101.253 38.7705C100.882 38.5459 100.595 38.2285 100.394 37.8184C100.195 37.4082 100.096 36.9232 100.096 36.3633V36.3584C100.096 35.805 100.195 35.3216 100.394 34.9082C100.595 34.4948 100.879 34.1725 101.243 33.9414C101.611 33.7103 102.041 33.5947 102.532 33.5947C103.027 33.5947 103.452 33.7054 103.807 33.9268C104.165 34.1481 104.44 34.459 104.632 34.8594C104.824 35.2565 104.92 35.722 104.92 36.2559V36.627H100.633V35.8701H104.393L103.885 36.5732V36.1484C103.885 35.7708 103.826 35.4583 103.709 35.2109C103.595 34.9603 103.437 34.7731 103.235 34.6494C103.034 34.5257 102.801 34.4639 102.537 34.4639C102.273 34.4639 102.037 34.529 101.829 34.6592C101.624 34.7861 101.461 34.9749 101.341 35.2256C101.224 35.4762 101.165 35.7839 101.165 36.1484V36.5732C101.165 36.9215 101.224 37.2194 101.341 37.4668C101.458 37.7142 101.624 37.903 101.839 38.0332C102.057 38.1634 102.314 38.2285 102.61 38.2285C102.838 38.2285 103.034 38.1976 103.196 38.1357C103.362 38.0706 103.497 37.9909 103.602 37.8965C103.709 37.8021 103.782 37.7093 103.821 37.6182L103.841 37.5791H104.866L104.856 37.623C104.811 37.7988 104.731 37.9746 104.617 38.1504C104.503 38.3229 104.352 38.4808 104.163 38.624C103.978 38.7673 103.753 38.8828 103.489 38.9707C103.229 39.0586 102.928 39.1025 102.586 39.1025ZM107.635 39.0879C107.299 39.0879 106.998 39.0244 106.731 38.8975C106.468 38.7673 106.259 38.5833 106.106 38.3457C105.953 38.1081 105.877 37.8298 105.877 37.5107V37.501C105.877 37.182 105.953 36.9102 106.106 36.6855C106.263 36.4609 106.487 36.2852 106.78 36.1582C107.076 36.028 107.435 35.9499 107.854 35.9238L109.812 35.8066V36.5537L108.001 36.6709C107.636 36.6937 107.368 36.7718 107.195 36.9053C107.023 37.0355 106.937 37.2194 106.937 37.457V37.4668C106.937 37.7077 107.029 37.8981 107.215 38.0381C107.4 38.1748 107.635 38.2432 107.918 38.2432C108.182 38.2432 108.416 38.1911 108.621 38.0869C108.829 37.9795 108.992 37.8363 109.109 37.6572C109.227 37.4749 109.285 37.2699 109.285 37.042V35.3721C109.285 35.0791 109.194 34.8561 109.012 34.7031C108.833 34.5469 108.566 34.4688 108.211 34.4688C107.915 34.4688 107.672 34.5208 107.483 34.625C107.298 34.7292 107.174 34.8757 107.112 35.0645L107.103 35.0791H106.082L106.087 35.0449C106.129 34.752 106.245 34.498 106.434 34.2832C106.626 34.0651 106.876 33.8958 107.186 33.7754C107.498 33.6549 107.854 33.5947 108.255 33.5947C108.701 33.5947 109.078 33.6663 109.388 33.8096C109.7 33.9495 109.936 34.153 110.096 34.4199C110.258 34.6836 110.34 35.001 110.34 35.3721V39H109.285V38.248H109.207C109.103 38.4271 108.973 38.5801 108.816 38.707C108.66 38.8307 108.483 38.9251 108.284 38.9902C108.086 39.0553 107.869 39.0879 107.635 39.0879ZM111.834 39V33.6973H112.894V34.5127H112.977C113.094 34.2197 113.276 33.9935 113.523 33.834C113.774 33.6745 114.074 33.5947 114.422 33.5947C114.663 33.5947 114.879 33.6338 115.071 33.7119C115.263 33.79 115.428 33.9007 115.564 34.0439C115.704 34.1839 115.813 34.3499 115.892 34.542H115.975C116.062 34.3499 116.186 34.1839 116.346 34.0439C116.505 33.9007 116.691 33.79 116.902 33.7119C117.117 33.6338 117.345 33.5947 117.586 33.5947C117.944 33.5947 118.25 33.6647 118.504 33.8047C118.758 33.9414 118.951 34.14 119.085 34.4004C119.218 34.6608 119.285 34.9749 119.285 35.3428V39H118.226V35.5967C118.226 35.3525 118.188 35.1507 118.113 34.9912C118.038 34.8285 117.924 34.7064 117.771 34.625C117.622 34.5436 117.433 34.5029 117.205 34.5029C116.98 34.5029 116.784 34.555 116.614 34.6592C116.448 34.7601 116.318 34.8968 116.224 35.0693C116.132 35.2386 116.087 35.4307 116.087 35.6455V39H115.027V35.4893C115.027 35.2874 114.985 35.1133 114.9 34.9668C114.819 34.8171 114.702 34.7031 114.549 34.625C114.396 34.5436 114.215 34.5029 114.007 34.5029C113.795 34.5029 113.605 34.5583 113.436 34.6689C113.27 34.7796 113.138 34.9294 113.04 35.1182C112.942 35.3037 112.894 35.512 112.894 35.7432V39H111.834Z" fill="#1A1D1F"/>
<path d="M50.5 23.3375V18.2875C50.5 16.3 49.7 15.5 47.7125 15.5H42.6625C40.675 15.5 39.875 16.3 39.875 18.2875V23.3375C39.875 25.325 40.675 26.125 42.6625 26.125H47.7125C49.7 26.125 50.5 25.325 50.5 23.3375Z" stroke="#1A1D1F" stroke-width="1.5" stroke-linecap="round" stroke-linejoin="round"/>
<path d="M36.125 23.65V17.975C36.125 16.2125 35.325 15.5 33.3375 15.5H28.2875C26.3 15.5 25.5 16.2125 25.5 17.975V23.6375C25.5 25.4125 26.3 26.1125 28.2875 26.1125H33.3375C35.325 26.125 36.125 25.4125 36.125 23.65Z" stroke="#1A1D1F" stroke-width="1.5" stroke-linecap="round" stroke-linejoin="round"/>
<path d="M36.125 37.7125V32.6625C36.125 30.675 35.325 29.875 33.3375 29.875H28.2875C26.3 29.875 25.5 30.675 25.5 32.6625V37.7125C25.5 39.7 26.3 40.5 28.2875 40.5H33.3375C35.325 40.5 36.125 39.7 36.125 37.7125Z" stroke="#1A1D1F" stroke-width="1.5" stroke-linecap="round" stroke-linejoin="round"/>
<path d="M41.125 34.875H48.625" stroke="#1A1D1F" stroke-width="1.5" stroke-linecap="round"/>
<path d="M44.875 38.625V31.125" stroke="#1A1D1F" stroke-width="1.5" stroke-linecap="round"/>
<defs>
<filter id="filter0_d_957_8530" x="0" y="0" width="180" height="60" filterUnits="userSpaceOnUse" color-interpolation-filters="sRGB">
<feFlood flood-opacity="0" result="BackgroundImageFix"/>
<feColorMatrix in="SourceAlpha" type="matrix" values="0 0 0 0 0 0 0 0 0 0 0 0 0 0 0 0 0 0 127 0" result="hardAlpha"/>
<feMorphology radius="1" operator="dilate" in="SourceAlpha" result="effect1_dropShadow_957_8530"/>
<feOffset dy="2"/>
<feGaussianBlur stdDeviation="2"/>
<feComposite in2="hardAlpha" operator="out"/>
<feColorMatrix type="matrix" values="0 0 0 0 0 0 0 0 0 0 0 0 0 0 0 0 0 0 0.25 0"/>
<feBlend mode="normal" in2="BackgroundImageFix" result="effect1_dropShadow_957_8530"/>
<feBlend mode="normal" in="SourceGraphic" in2="effect1_dropShadow_957_8530" result="shape"/>
</filter>
<linearGradient id="paint0_linear_957_8530" x1="175" y1="53" x2="9" y2="6.99999" gradientUnits="userSpaceOnUse">
<stop stop-color="#F0F4FA"/>
<stop offset="0.547929" stop-color="#D9E821"/>
</linearGradient>
<linearGradient id="paint1_linear_957_8530" x1="97" y1="0.5" x2="97.5" y2="53" gradientUnits="userSpaceOnUse">
<stop stop-color="#BCBCBD"/>
<stop offset="1" stop-color="#D9E821"/>
</linearGradient>
</defs>
</svg>
